PathFileType	4	(X/Y/Z)	D:\TRACE\spotREDO_2-26-24\spot_Both_Motion_3_8-v60.trc
DataRate	CameraRate	NumFrames	NumMarkers	Units	OrigDataRate	OrigDataStartFrame	OrigNumFrames
100.00	100.00	      17	9	mm	100.00	1	      7000
Frame#	Time	front left toe			Front right toe			aft left toe			aft right toe			Arm			FL body			FR body			AL Body			AR Body			
		X1	Y1	Z1	X2	Y2	Z2	X3	Y3	Z3	X4	Y4	Z4	X5	Y5	Z5	X6	Y6	Z6	X7	Y7	Z7	X8	Y8	Z8	X9	Y9	Z9	

1	0.000	-239.39912	175.88849	-156.30736	242.78738	67.26195	-212.13022	-249.04536	-41.28888	400.68335	258.40094	-35.54613	390.84583	-11.19997	958.28357	-363.00684	-89.22360	623.02722	-260.37967	66.44266	628.96069	-267.11935	-53.57773	468.93689	609.69019	93.96381	463.88232	604.56079	
2	0.010	-236.54486	174.61728	-152.90065	242.85448	66.65759	-212.52756	-249.15695	-41.44318	400.69830	258.38043	-35.40571	390.86386	-11.55853	958.65637	-363.30817	-90.02158	622.86847	-259.80136	65.41452	628.99768	-266.55200	-54.25861	469.05609	610.16705	92.91279	464.05392	605.09399	
3	0.020	-234.79938	173.74539	-149.06676	242.85847	67.12872	-212.11612	-249.24391	-41.58720	400.72342	258.30545	-35.27985	390.78024	-12.18226	959.08093	-364.07419	-91.00313	622.64587	-259.26035	64.83302	628.98853	-265.93649	-55.54822	468.86987	610.64459	91.97488	464.16229	605.55310	
4	0.030	-232.56500	172.82935	-145.38930	242.88675	67.58279	-211.85139	-249.33765	-41.66203	400.76764	258.25156	-35.23951	390.75592	-12.51470	959.29559	-364.57483	-92.28061	622.51898	-258.90756	63.57548	629.05493	-265.30539	-56.46138	468.68451	611.04382	90.95097	464.31540	606.12433	
5	0.040	-230.24631	171.71715	-141.73387	242.64735	67.71702	-211.92072	-249.39920	-41.74657	400.77249	258.23639	-35.17812	390.74298	-12.65337	959.65454	-365.06891	-93.67799	622.52966	-258.38980	62.27556	629.18195	-264.98672	-57.72573	468.84708	611.31543	89.50223	464.71786	607.10742	
6	0.050	-227.61653	170.23895	-138.80135	242.48199	67.95335	-211.87076	-249.47063	-41.74204	400.79538	258.18866	-35.08507	390.74307	-13.12867	960.15155	-365.67355	-94.86462	622.50073	-258.27533	61.17756	629.25494	-264.68234	-58.31765	468.81384	611.92786	88.75579	464.48474	606.70135	
7	0.060	-224.72617	167.79611	-135.81883	242.37213	67.72589	-211.93976	-249.50526	-41.79889	400.81671	258.16867	-35.05007	390.69794	-13.60947	960.49817	-366.23917	-96.37205	622.23999	-257.81717	59.93728	629.00323	-264.38126	-59.26799	468.73676	612.38708	87.76232	464.45303	606.86041	
8	0.070	-222.64951	163.99779	-134.55316	242.22420	67.76357	-211.98759	-249.55605	-41.85645	400.80225	258.11066	-34.99257	390.68649	-13.67942	960.79468	-366.56525	-97.56743	622.09613	-257.43680	58.52014	628.92419	-264.31189	-60.73293	468.88330	612.55750	86.48158	464.59735	607.13989	
9	0.080	-220.76460	157.12166	-132.11723	243.29248	68.71371	-211.64476	-249.60309	-41.85587	400.78220	257.97607	-34.86194	390.62988	-13.87932	961.28217	-366.85574	-99.22109	622.18781	-257.27750	56.92228	628.95422	-263.91406	-62.15694	469.06836	612.83466	85.26180	464.93811	607.37042	
10	0.090	-218.76431	148.05083	-130.14714	243.28893	68.74389	-211.69162	-249.65155	-41.91905	400.78003	257.85764	-34.90970	390.59634	-14.36961	961.85333	-367.61914	-100.71888	622.01862	-256.91464	54.94771	629.05695	-263.84882	-63.28783	469.76059	613.35004	83.88764	465.23346	607.88306	
11	0.100	-216.62704	137.33716	-128.27187	243.21538	68.74954	-211.70038	-249.66342	-41.96165	400.82645	257.85010	-34.71836	390.54977	-14.55529	962.30750	-368.07166	-102.15513	622.09503	-256.84134	54.04715	629.11176	-263.53503	-64.83041	469.91080	613.48047	82.49843	465.42242	608.15289	
12	0.110	-214.82832	125.62939	-126.12831	243.12126	68.90291	-211.79752	-249.75674	-42.05484	400.86765	257.69827	-34.46088	390.49789	-14.93126	962.65466	-368.41708	-103.57510	621.98761	-256.70163	52.03795	629.14563	-263.43124	-66.48322	470.08478	613.67725	80.73036	465.60971	608.18872	
13	0.120	-213.03604	114.17120	-123.39764	242.97989	68.97862	-211.81570	-249.92500	-42.15543	400.88208	257.64139	-34.37333	390.54129	-15.23800	962.92761	-368.77130	-105.19279	621.85748	-256.72992	51.00110	629.06012	-263.36517	-68.12069	470.15195	613.74359	79.17374	465.72357	608.30963	
14	0.130	-211.06776	103.56457	-121.10954	242.97833	69.00542	-211.77711	-249.98425	-42.25179	400.89780	257.59134	-34.21354	390.60587	-15.81676	963.28992	-369.44781	-106.82226	621.80902	-256.76279	49.28500	629.05170	-263.36383	-69.90678	470.31216	613.73212	77.55449	466.21893	608.48981	
15	0.140	-209.55339	92.94840	-119.01163	242.95940	69.06769	-211.73438	-250.00661	-42.32299	400.91095	257.57211	-34.16485	390.66098	-16.03882	963.63000	-369.87851	-108.55244	621.74927	-256.64902	47.64174	628.93921	-263.33438	-71.87938	470.52728	613.74194	75.47406	466.21173	608.52698	
16	0.150	-208.69600	82.81892	-117.86401	242.90892	69.13213	-211.78297	-250.11530	-42.31673	400.89227	257.50784	-34.14186	390.66162	-16.37947	964.15735	-370.46484	-110.33242	621.62671	-256.83990	45.84696	628.92047	-263.48639	-73.82058	470.64334	613.70349	73.84299	466.37399	608.56873	
17	0.160	-208.14935	72.80944	-117.05573	242.87006	69.24954	-211.73848	-250.11894	-42.40788	400.96045	257.43039	-34.10204	390.61877	-16.90987	964.47778	-371.12415	-112.24915	621.69672	-257.02167	43.83867	628.89325	-263.58289	-75.58418	470.71359	613.48950	71.89263	466.55679	608.32544	
